<mxfile host="Electron" agent="Mozilla/5.0 (X11; Linux x86_64) AppleWebKit/537.36 (KHTML, like Gecko) draw.io/26.0.9 Chrome/128.0.6613.186 Electron/32.2.5 Safari/537.36" version="26.0.9">
  <diagram name="Page-1" id="-H_mtQnk-PTXWXPvYvuk">
    <mxGraphModel dx="2008" dy="2185" grid="1" gridSize="10" guides="1" tooltips="1" connect="1" arrows="1" fold="1" page="1" pageScale="1" pageWidth="1169" pageHeight="827" math="0" shadow="0">
      <root>
        <mxCell id="0" />
        <mxCell id="1" parent="0" />
        <mxCell id="LbU3xU6buKqwQcndJY7--15" value="" style="rounded=1;whiteSpace=wrap;html=1;fillColor=#f5f5f5;fontColor=#333333;strokeColor=#666666;" parent="1" vertex="1">
          <mxGeometry x="10" y="-150" width="1020" height="980" as="geometry" />
        </mxCell>
        <mxCell id="AQoTyAOBwtpcITkI7_EM-16" value="" style="rounded=1;whiteSpace=wrap;html=1;dashed=1;dashPattern=8 8;glass=0;shadow=0;fillColor=none;align=left;" parent="1" vertex="1">
          <mxGeometry x="115" y="560" width="315" height="250" as="geometry" />
        </mxCell>
        <mxCell id="zA23MoTUsTF4_91t8viU-3" value="pymongo-api" style="rounded=1;whiteSpace=wrap;html=1;fillColor=#1ba1e2;fontColor=#ffffff;strokeColor=#006EAF;" parent="1" vertex="1">
          <mxGeometry x="338.82" y="290" width="120" height="40" as="geometry" />
        </mxCell>
        <mxCell id="LbU3xU6buKqwQcndJY7--1" value="MongoDB&lt;div&gt;shard1&lt;/div&gt;&lt;div&gt;master&lt;/div&gt;" style="shape=cylinder3;whiteSpace=wrap;html=1;boundedLbl=1;backgroundOutline=1;size=15;fillColor=#dae8fc;strokeColor=#6c8ebf;" parent="1" vertex="1">
          <mxGeometry x="230" y="580" width="80" height="100" as="geometry" />
        </mxCell>
        <mxCell id="LbU3xU6buKqwQcndJY7--5" value="MongoDB&lt;div&gt;shard2&lt;/div&gt;&lt;div&gt;master&lt;/div&gt;" style="shape=cylinder3;whiteSpace=wrap;html=1;boundedLbl=1;backgroundOutline=1;size=15;fillColor=#dae8fc;strokeColor=#6c8ebf;" parent="1" vertex="1">
          <mxGeometry x="600" y="580" width="80" height="100" as="geometry" />
        </mxCell>
        <mxCell id="LbU3xU6buKqwQcndJY7--7" value="mongos-router" style="rounded=1;whiteSpace=wrap;html=1;fillColor=#dae8fc;strokeColor=#6c8ebf;" parent="1" vertex="1">
          <mxGeometry x="400" y="460" width="120" height="60" as="geometry" />
        </mxCell>
        <mxCell id="LbU3xU6buKqwQcndJY7--8" value="configSrv&lt;div&gt;(Конфигурационный сервер)&lt;/div&gt;" style="rounded=1;whiteSpace=wrap;html=1;fillColor=#f8cecc;strokeColor=#b85450;" parent="1" vertex="1">
          <mxGeometry x="830" y="450" width="130" height="70" as="geometry" />
        </mxCell>
        <mxCell id="LbU3xU6buKqwQcndJY7--9" value="" style="endArrow=classic;html=1;rounded=0;exitX=0.5;exitY=1;exitDx=0;exitDy=0;strokeWidth=2;entryX=0.169;entryY=0.05;entryDx=0;entryDy=0;entryPerimeter=0;" parent="1" source="mt5vHw7wnOWDeVbUdnSA-1" target="LbU3xU6buKqwQcndJY7--7" edge="1">
          <mxGeometry width="50" height="50" relative="1" as="geometry">
            <mxPoint x="240" y="470" as="sourcePoint" />
            <mxPoint x="290" y="420" as="targetPoint" />
          </mxGeometry>
        </mxCell>
        <mxCell id="LbU3xU6buKqwQcndJY7--10" value="" style="endArrow=classic;html=1;rounded=0;exitX=0.25;exitY=1;exitDx=0;exitDy=0;entryX=0.5;entryY=0;entryDx=0;entryDy=0;entryPerimeter=0;strokeWidth=2;" parent="1" source="LbU3xU6buKqwQcndJY7--7" target="LbU3xU6buKqwQcndJY7--1" edge="1">
          <mxGeometry width="50" height="50" relative="1" as="geometry">
            <mxPoint x="240" y="470" as="sourcePoint" />
            <mxPoint x="290" y="420" as="targetPoint" />
          </mxGeometry>
        </mxCell>
        <mxCell id="LbU3xU6buKqwQcndJY7--11" value="" style="endArrow=classic;html=1;rounded=0;exitX=0.75;exitY=1;exitDx=0;exitDy=0;entryX=0.5;entryY=0;entryDx=0;entryDy=0;entryPerimeter=0;strokeWidth=2;" parent="1" source="LbU3xU6buKqwQcndJY7--7" target="LbU3xU6buKqwQcndJY7--5" edge="1">
          <mxGeometry width="50" height="50" relative="1" as="geometry">
            <mxPoint x="240" y="470" as="sourcePoint" />
            <mxPoint x="290" y="420" as="targetPoint" />
          </mxGeometry>
        </mxCell>
        <mxCell id="LbU3xU6buKqwQcndJY7--12" value="" style="endArrow=classic;html=1;rounded=0;strokeWidth=2;entryX=0.008;entryY=0.6;entryDx=0;entryDy=0;exitX=1;exitY=0.5;exitDx=0;exitDy=0;entryPerimeter=0;" parent="1" source="LbU3xU6buKqwQcndJY7--7" target="LbU3xU6buKqwQcndJY7--8" edge="1">
          <mxGeometry width="50" height="50" relative="1" as="geometry">
            <mxPoint x="240" y="470" as="sourcePoint" />
            <mxPoint x="580" y="350" as="targetPoint" />
            <Array as="points" />
          </mxGeometry>
        </mxCell>
        <mxCell id="AQoTyAOBwtpcITkI7_EM-1" value="MongoDB&lt;div&gt;shard1&lt;/div&gt;&lt;div&gt;replica1&lt;/div&gt;" style="shape=cylinder3;whiteSpace=wrap;html=1;boundedLbl=1;backgroundOutline=1;size=15;fillColor=#b0e3e6;strokeColor=#0e8088;" parent="1" vertex="1">
          <mxGeometry x="130" y="700" width="80" height="100" as="geometry" />
        </mxCell>
        <mxCell id="AQoTyAOBwtpcITkI7_EM-4" value="MongoDB&lt;div&gt;shard1&lt;/div&gt;&lt;div&gt;replica2&lt;/div&gt;" style="shape=cylinder3;whiteSpace=wrap;html=1;boundedLbl=1;backgroundOutline=1;size=15;fillColor=#b0e3e6;strokeColor=#0e8088;" parent="1" vertex="1">
          <mxGeometry x="330" y="700" width="80" height="100" as="geometry" />
        </mxCell>
        <mxCell id="AQoTyAOBwtpcITkI7_EM-5" value="MongoDB&lt;div&gt;shard2&lt;/div&gt;&lt;div&gt;replica1&lt;/div&gt;" style="shape=cylinder3;whiteSpace=wrap;html=1;boundedLbl=1;backgroundOutline=1;size=15;fillColor=#b0e3e6;strokeColor=#0e8088;" parent="1" vertex="1">
          <mxGeometry x="500" y="700" width="80" height="100" as="geometry" />
        </mxCell>
        <mxCell id="AQoTyAOBwtpcITkI7_EM-6" value="MongoDB&lt;div&gt;shard2&lt;/div&gt;&lt;div&gt;replica2&lt;/div&gt;" style="shape=cylinder3;whiteSpace=wrap;html=1;boundedLbl=1;backgroundOutline=1;size=15;fillColor=#b0e3e6;strokeColor=#0e8088;" parent="1" vertex="1">
          <mxGeometry x="710" y="700" width="80" height="100" as="geometry" />
        </mxCell>
        <mxCell id="AQoTyAOBwtpcITkI7_EM-8" value="" style="endArrow=classic;html=1;rounded=0;exitX=0.145;exitY=1;exitDx=0;exitDy=-4.35;exitPerimeter=0;entryX=0.5;entryY=0;entryDx=0;entryDy=0;entryPerimeter=0;strokeColor=light-dark(#0000FF,#EDEDED);strokeWidth=2;" parent="1" source="LbU3xU6buKqwQcndJY7--1" target="AQoTyAOBwtpcITkI7_EM-1" edge="1">
          <mxGeometry width="50" height="50" relative="1" as="geometry">
            <mxPoint x="650" y="500" as="sourcePoint" />
            <mxPoint x="700" y="450" as="targetPoint" />
          </mxGeometry>
        </mxCell>
        <mxCell id="AQoTyAOBwtpcITkI7_EM-9" value="replication" style="edgeLabel;html=1;align=center;verticalAlign=middle;resizable=0;points=[];" parent="AQoTyAOBwtpcITkI7_EM-8" vertex="1" connectable="0">
          <mxGeometry x="0.0127" y="-3" relative="1" as="geometry">
            <mxPoint as="offset" />
          </mxGeometry>
        </mxCell>
        <mxCell id="AQoTyAOBwtpcITkI7_EM-10" value="" style="endArrow=classic;html=1;rounded=0;exitX=0.855;exitY=1;exitDx=0;exitDy=-4.35;exitPerimeter=0;entryX=0.5;entryY=0;entryDx=0;entryDy=0;entryPerimeter=0;strokeColor=#0000FF;strokeWidth=2;" parent="1" source="LbU3xU6buKqwQcndJY7--1" target="AQoTyAOBwtpcITkI7_EM-4" edge="1">
          <mxGeometry width="50" height="50" relative="1" as="geometry">
            <mxPoint x="370" y="481" as="sourcePoint" />
            <mxPoint x="320" y="570" as="targetPoint" />
          </mxGeometry>
        </mxCell>
        <mxCell id="AQoTyAOBwtpcITkI7_EM-11" value="replication" style="edgeLabel;html=1;align=center;verticalAlign=middle;resizable=0;points=[];" parent="AQoTyAOBwtpcITkI7_EM-10" vertex="1" connectable="0">
          <mxGeometry x="0.0127" y="-3" relative="1" as="geometry">
            <mxPoint as="offset" />
          </mxGeometry>
        </mxCell>
        <mxCell id="AQoTyAOBwtpcITkI7_EM-12" value="" style="endArrow=classic;html=1;rounded=0;exitX=0.145;exitY=1;exitDx=0;exitDy=-4.35;exitPerimeter=0;entryX=0.5;entryY=0;entryDx=0;entryDy=0;entryPerimeter=0;strokeColor=#0000FF;strokeWidth=2;" parent="1" source="LbU3xU6buKqwQcndJY7--5" target="AQoTyAOBwtpcITkI7_EM-5" edge="1">
          <mxGeometry width="50" height="50" relative="1" as="geometry">
            <mxPoint x="310" y="505" as="sourcePoint" />
            <mxPoint x="260" y="594" as="targetPoint" />
          </mxGeometry>
        </mxCell>
        <mxCell id="AQoTyAOBwtpcITkI7_EM-13" value="replication" style="edgeLabel;html=1;align=center;verticalAlign=middle;resizable=0;points=[];" parent="AQoTyAOBwtpcITkI7_EM-12" vertex="1" connectable="0">
          <mxGeometry x="0.0127" y="-3" relative="1" as="geometry">
            <mxPoint as="offset" />
          </mxGeometry>
        </mxCell>
        <mxCell id="AQoTyAOBwtpcITkI7_EM-14" value="" style="endArrow=classic;html=1;rounded=0;entryX=0.5;entryY=0;entryDx=0;entryDy=0;entryPerimeter=0;exitX=0.855;exitY=1;exitDx=0;exitDy=-4.35;exitPerimeter=0;strokeWidth=2;strokeColor=light-dark(#0000FF,#EDEDED);" parent="1" source="LbU3xU6buKqwQcndJY7--5" target="AQoTyAOBwtpcITkI7_EM-6" edge="1">
          <mxGeometry width="50" height="50" relative="1" as="geometry">
            <mxPoint x="600" y="530" as="sourcePoint" />
            <mxPoint x="570" y="570" as="targetPoint" />
          </mxGeometry>
        </mxCell>
        <mxCell id="AQoTyAOBwtpcITkI7_EM-15" value="replication" style="edgeLabel;html=1;align=center;verticalAlign=middle;resizable=0;points=[];" parent="AQoTyAOBwtpcITkI7_EM-14" vertex="1" connectable="0">
          <mxGeometry x="0.0127" y="-3" relative="1" as="geometry">
            <mxPoint as="offset" />
          </mxGeometry>
        </mxCell>
        <mxCell id="AQoTyAOBwtpcITkI7_EM-17" value="&lt;font style=&quot;color: rgb(0, 0, 255);&quot;&gt;Shard1&lt;/font&gt;" style="text;html=1;align=center;verticalAlign=middle;whiteSpace=wrap;rounded=0;" parent="1" vertex="1">
          <mxGeometry x="130" y="570" width="60" height="30" as="geometry" />
        </mxCell>
        <mxCell id="AQoTyAOBwtpcITkI7_EM-18" value="" style="rounded=1;whiteSpace=wrap;html=1;dashed=1;dashPattern=8 8;glass=0;shadow=0;fillColor=none;align=left;" parent="1" vertex="1">
          <mxGeometry x="476.18" y="560" width="330" height="250" as="geometry" />
        </mxCell>
        <mxCell id="AQoTyAOBwtpcITkI7_EM-19" value="&lt;font style=&quot;color: rgb(0, 0, 255);&quot;&gt;Shard2&lt;/font&gt;" style="text;html=1;align=center;verticalAlign=middle;whiteSpace=wrap;rounded=0;" parent="1" vertex="1">
          <mxGeometry x="495" y="570" width="60" height="30" as="geometry" />
        </mxCell>
        <mxCell id="AQoTyAOBwtpcITkI7_EM-21" value="" style="rounded=1;whiteSpace=wrap;html=1;dashed=1;dashPattern=8 8;glass=0;shadow=0;fillColor=none;align=left;" parent="1" vertex="1">
          <mxGeometry x="93.81" y="540" width="740" height="280" as="geometry" />
        </mxCell>
        <mxCell id="AQoTyAOBwtpcITkI7_EM-25" value="" style="endArrow=classic;html=1;rounded=0;entryX=0.5;entryY=1;entryDx=0;entryDy=0;exitX=1;exitY=0.25;exitDx=0;exitDy=0;fontSize=12;strokeWidth=2;" parent="1" source="AQoTyAOBwtpcITkI7_EM-21" target="LbU3xU6buKqwQcndJY7--8" edge="1">
          <mxGeometry width="50" height="50" relative="1" as="geometry">
            <mxPoint x="870" y="500" as="sourcePoint" />
            <mxPoint x="920" y="450" as="targetPoint" />
            <Array as="points">
              <mxPoint x="895" y="610" />
            </Array>
          </mxGeometry>
        </mxCell>
        <mxCell id="mt5vHw7wnOWDeVbUdnSA-2" value="" style="endArrow=classic;html=1;rounded=0;exitX=0.5;exitY=1;exitDx=0;exitDy=0;strokeWidth=2;" parent="1" source="zA23MoTUsTF4_91t8viU-3" target="mt5vHw7wnOWDeVbUdnSA-1" edge="1">
          <mxGeometry width="50" height="50" relative="1" as="geometry">
            <mxPoint x="440" y="90" as="sourcePoint" />
            <mxPoint x="440" y="280" as="targetPoint" />
          </mxGeometry>
        </mxCell>
        <mxCell id="mt5vHw7wnOWDeVbUdnSA-1" value="" style="image;sketch=0;aspect=fixed;html=1;points=[];align=center;fontSize=12;image=img/lib/mscae/Cache_Redis_Product.svg;" parent="1" vertex="1">
          <mxGeometry x="360" y="361.8" width="87.63" height="73.6" as="geometry" />
        </mxCell>
        <mxCell id="mt5vHw7wnOWDeVbUdnSA-3" value="&lt;font style=&quot;font-size: 16px; color: rgb(255, 255, 255);&quot;&gt;&lt;b style=&quot;&quot;&gt;Redis&lt;/b&gt;&lt;/font&gt;" style="text;html=1;align=center;verticalAlign=middle;whiteSpace=wrap;rounded=0;" parent="1" vertex="1">
          <mxGeometry x="373.82" y="391.8" width="60" height="30" as="geometry" />
        </mxCell>
        <mxCell id="oRIm_CHohZwKzfgMhH87-1" value="" style="image;sketch=0;aspect=fixed;html=1;points=[];align=center;fontSize=12;image=img/lib/mscae/Cache_Redis_Product.svg;" parent="1" vertex="1">
          <mxGeometry x="476.18" y="361.8" width="87.63" height="73.6" as="geometry" />
        </mxCell>
        <mxCell id="oRIm_CHohZwKzfgMhH87-2" value="" style="endArrow=classic;html=1;rounded=0;strokeWidth=2;entryX=0.836;entryY=0.05;entryDx=0;entryDy=0;entryPerimeter=0;exitX=0.47;exitY=0.96;exitDx=0;exitDy=0;exitPerimeter=0;" parent="1" source="oRIm_CHohZwKzfgMhH87-1" target="LbU3xU6buKqwQcndJY7--7" edge="1">
          <mxGeometry width="50" height="50" relative="1" as="geometry">
            <mxPoint x="425" y="392" as="sourcePoint" />
            <mxPoint x="430" y="433" as="targetPoint" />
          </mxGeometry>
        </mxCell>
        <mxCell id="oRIm_CHohZwKzfgMhH87-3" value="&lt;font style=&quot;font-size: 16px; color: rgb(255, 255, 255);&quot;&gt;&lt;b style=&quot;&quot;&gt;Redis&lt;/b&gt;&lt;/font&gt;" style="text;html=1;align=center;verticalAlign=middle;whiteSpace=wrap;rounded=0;" parent="1" vertex="1">
          <mxGeometry x="490" y="391.8" width="60" height="30" as="geometry" />
        </mxCell>
        <mxCell id="oRIm_CHohZwKzfgMhH87-4" value="pymongo-api" style="rounded=1;whiteSpace=wrap;html=1;fillColor=#1ba1e2;fontColor=#ffffff;strokeColor=#006EAF;" parent="1" vertex="1">
          <mxGeometry x="470" y="290" width="120" height="40" as="geometry" />
        </mxCell>
        <mxCell id="oRIm_CHohZwKzfgMhH87-5" value="" style="endArrow=classic;html=1;rounded=0;exitX=0.454;exitY=1.022;exitDx=0;exitDy=0;strokeWidth=2;entryX=0.479;entryY=0.02;entryDx=0;entryDy=0;entryPerimeter=0;exitPerimeter=0;" parent="1" source="oRIm_CHohZwKzfgMhH87-4" target="oRIm_CHohZwKzfgMhH87-1" edge="1">
          <mxGeometry width="50" height="50" relative="1" as="geometry">
            <mxPoint x="409" y="280" as="sourcePoint" />
            <mxPoint x="417" y="318" as="targetPoint" />
          </mxGeometry>
        </mxCell>
        <mxCell id="oRIm_CHohZwKzfgMhH87-6" value="&lt;b&gt;APISIX Gateway&lt;/b&gt;" style="rounded=1;whiteSpace=wrap;html=1;fillColor=#ffe6cc;strokeColor=#d79b00;" parent="1" vertex="1">
          <mxGeometry x="400" y="70" width="130" height="60" as="geometry" />
        </mxCell>
        <mxCell id="oRIm_CHohZwKzfgMhH87-7" value="&lt;b&gt;Consul&lt;/b&gt;" style="rounded=1;whiteSpace=wrap;html=1;fillColor=#ffe6cc;strokeColor=#d79b00;" parent="1" vertex="1">
          <mxGeometry x="410" y="200" width="100" height="30" as="geometry" />
        </mxCell>
        <mxCell id="oRIm_CHohZwKzfgMhH87-8" value="&lt;b&gt;consul_kv&lt;/b&gt;" style="rounded=1;whiteSpace=wrap;html=1;fillColor=#ffe6cc;strokeColor=#d79b00;" parent="1" vertex="1">
          <mxGeometry x="376.18" y="120" width="100" height="30" as="geometry" />
        </mxCell>
        <mxCell id="oRIm_CHohZwKzfgMhH87-9" value="" style="endArrow=classic;html=1;rounded=0;exitX=0.5;exitY=1;exitDx=0;exitDy=0;entryX=0.5;entryY=0;entryDx=0;entryDy=0;strokeWidth=2;" parent="1" source="oRIm_CHohZwKzfgMhH87-8" target="oRIm_CHohZwKzfgMhH87-7" edge="1">
          <mxGeometry width="50" height="50" relative="1" as="geometry">
            <mxPoint x="750" y="560" as="sourcePoint" />
            <mxPoint x="800" y="510" as="targetPoint" />
          </mxGeometry>
        </mxCell>
        <mxCell id="oRIm_CHohZwKzfgMhH87-10" value="Получить список серверов" style="edgeLabel;html=1;align=center;verticalAlign=middle;resizable=0;points=[];" parent="oRIm_CHohZwKzfgMhH87-9" vertex="1" connectable="0">
          <mxGeometry x="0.0667" y="3" relative="1" as="geometry">
            <mxPoint as="offset" />
          </mxGeometry>
        </mxCell>
        <mxCell id="oRIm_CHohZwKzfgMhH87-11" value="" style="endArrow=classic;html=1;rounded=0;exitX=0.5;exitY=0;exitDx=0;exitDy=0;strokeWidth=2;" parent="1" source="zA23MoTUsTF4_91t8viU-3" target="oRIm_CHohZwKzfgMhH87-7" edge="1">
          <mxGeometry width="50" height="50" relative="1" as="geometry">
            <mxPoint x="260" y="240" as="sourcePoint" />
            <mxPoint x="310" y="190" as="targetPoint" />
          </mxGeometry>
        </mxCell>
        <mxCell id="oRIm_CHohZwKzfgMhH87-12" value="Регистрация" style="edgeLabel;html=1;align=center;verticalAlign=middle;resizable=0;points=[];" parent="oRIm_CHohZwKzfgMhH87-11" vertex="1" connectable="0">
          <mxGeometry x="-0.1702" y="2" relative="1" as="geometry">
            <mxPoint as="offset" />
          </mxGeometry>
        </mxCell>
        <mxCell id="oRIm_CHohZwKzfgMhH87-13" value="" style="endArrow=classic;html=1;rounded=0;exitX=0.5;exitY=0;exitDx=0;exitDy=0;entryX=0.687;entryY=0.989;entryDx=0;entryDy=0;entryPerimeter=0;strokeWidth=2;" parent="1" source="oRIm_CHohZwKzfgMhH87-4" target="oRIm_CHohZwKzfgMhH87-7" edge="1">
          <mxGeometry width="50" height="50" relative="1" as="geometry">
            <mxPoint x="409" y="220" as="sourcePoint" />
            <mxPoint x="453" y="180" as="targetPoint" />
          </mxGeometry>
        </mxCell>
        <mxCell id="oRIm_CHohZwKzfgMhH87-14" value="Регистрация" style="edgeLabel;html=1;align=center;verticalAlign=middle;resizable=0;points=[];" parent="oRIm_CHohZwKzfgMhH87-13" vertex="1" connectable="0">
          <mxGeometry x="-0.1702" y="2" relative="1" as="geometry">
            <mxPoint as="offset" />
          </mxGeometry>
        </mxCell>
        <mxCell id="oRIm_CHohZwKzfgMhH87-15" value="" style="endArrow=classic;html=1;rounded=0;exitX=1;exitY=0.25;exitDx=0;exitDy=0;entryX=1;entryY=0.5;entryDx=0;entryDy=0;strokeWidth=2;" parent="1" source="oRIm_CHohZwKzfgMhH87-6" target="oRIm_CHohZwKzfgMhH87-4" edge="1">
          <mxGeometry width="50" height="50" relative="1" as="geometry">
            <mxPoint x="725" y="100" as="sourcePoint" />
            <mxPoint x="775" y="50" as="targetPoint" />
            <Array as="points">
              <mxPoint x="650" y="85" />
              <mxPoint x="650" y="310" />
            </Array>
          </mxGeometry>
        </mxCell>
        <mxCell id="oRIm_CHohZwKzfgMhH87-18" value="" style="endArrow=classic;html=1;rounded=0;exitX=0;exitY=0.25;exitDx=0;exitDy=0;entryX=0;entryY=0.5;entryDx=0;entryDy=0;strokeWidth=2;" parent="1" source="oRIm_CHohZwKzfgMhH87-6" target="zA23MoTUsTF4_91t8viU-3" edge="1">
          <mxGeometry width="50" height="50" relative="1" as="geometry">
            <mxPoint x="190" y="260" as="sourcePoint" />
            <mxPoint x="240" y="210" as="targetPoint" />
            <Array as="points">
              <mxPoint x="290" y="85" />
              <mxPoint x="290" y="310" />
            </Array>
          </mxGeometry>
        </mxCell>
        <mxCell id="6H1BYiaoJ53okRA2XcYD-2" value="онлайн-магазин" style="rounded=0;whiteSpace=wrap;html=1;fillColor=#d5e8d4;strokeColor=#82b366;" vertex="1" parent="1">
          <mxGeometry x="363.81" y="-20" width="200" height="40" as="geometry" />
        </mxCell>
        <mxCell id="6H1BYiaoJ53okRA2XcYD-3" value="&lt;b&gt;CDN&lt;/b&gt;" style="ellipse;shape=cloud;whiteSpace=wrap;html=1;fillColor=#e1d5e7;strokeColor=#9673a6;" vertex="1" parent="1">
          <mxGeometry x="70" y="150" width="120" height="80" as="geometry" />
        </mxCell>
        <mxCell id="6H1BYiaoJ53okRA2XcYD-4" value="" style="endArrow=classic;html=1;rounded=0;exitX=0.477;exitY=1.032;exitDx=0;exitDy=0;exitPerimeter=0;entryX=0.46;entryY=0.031;entryDx=0;entryDy=0;entryPerimeter=0;strokeWidth=2;" edge="1" parent="1" source="6H1BYiaoJ53okRA2XcYD-2" target="oRIm_CHohZwKzfgMhH87-6">
          <mxGeometry width="50" height="50" relative="1" as="geometry">
            <mxPoint x="560" y="500" as="sourcePoint" />
            <mxPoint x="610" y="450" as="targetPoint" />
            <Array as="points">
              <mxPoint x="460" y="50" />
            </Array>
          </mxGeometry>
        </mxCell>
        <mxCell id="6H1BYiaoJ53okRA2XcYD-5" value="" style="endArrow=classic;html=1;rounded=0;exitX=0;exitY=0.5;exitDx=0;exitDy=0;entryX=0.57;entryY=0.163;entryDx=0;entryDy=0;entryPerimeter=0;strokeWidth=2;strokeColor=#6600CC;" edge="1" parent="1" source="6H1BYiaoJ53okRA2XcYD-2" target="6H1BYiaoJ53okRA2XcYD-3">
          <mxGeometry width="50" height="50" relative="1" as="geometry">
            <mxPoint x="560" y="500" as="sourcePoint" />
            <mxPoint x="163" y="140" as="targetPoint" />
            <Array as="points">
              <mxPoint x="138" />
            </Array>
          </mxGeometry>
        </mxCell>
        <mxCell id="6H1BYiaoJ53okRA2XcYD-8" value="" style="endArrow=classic;html=1;rounded=0;exitX=0.5;exitY=1;exitDx=0;exitDy=0;entryX=0.5;entryY=0;entryDx=0;entryDy=0;strokeWidth=2;" edge="1" parent="1" target="6H1BYiaoJ53okRA2XcYD-2">
          <mxGeometry width="50" height="50" relative="1" as="geometry">
            <mxPoint x="463.80999999999995" y="-60" as="sourcePoint" />
            <mxPoint x="550" y="80" as="targetPoint" />
          </mxGeometry>
        </mxCell>
        <mxCell id="6H1BYiaoJ53okRA2XcYD-9" value="" style="sketch=0;outlineConnect=0;fontColor=#232F3E;gradientColor=none;fillColor=#232F3D;strokeColor=none;dashed=0;verticalLabelPosition=bottom;verticalAlign=top;align=center;html=1;fontSize=12;fontStyle=0;aspect=fixed;pointerEvents=1;shape=mxgraph.aws4.users;" vertex="1" parent="1">
          <mxGeometry x="424.81" y="-140" width="78" height="78" as="geometry" />
        </mxCell>
      </root>
    </mxGraphModel>
  </diagram>
</mxfile>
